<svg xmlns="http://www.w3.org/2000/svg" width="100" height="100" enable-background="new 0 0 100 100" viewBox="0 0 100 100"><path d="M90.085,38.673l-9.56-10.572c-0.379-0.419-0.918-0.659-1.483-0.659h-4.308v-3.375c3.203-0.387,5.695-3.118,5.695-6.424
	c0-3.571-2.905-6.476-6.476-6.476H26.047c-3.571,0-6.476,2.905-6.476,6.476c0,3.307,2.493,6.038,5.697,6.425v3.379h-4.311
	c-0.565,0-1.104,0.239-1.483,0.659L9.916,38.678c-0.333,0.368-0.517,0.846-0.517,1.341v32.165c0,9.181,7.469,16.649,16.649,16.649
	h36.92c0.013,0,0.026-0.004,0.039-0.004h10.952c9.177,0,16.643-7.466,16.643-16.644V40.014
	C90.602,39.519,90.418,39.041,90.085,38.673z M23.571,17.643c0-1.365,1.111-2.476,2.476-2.476h47.907
	c1.365,0,2.476,1.111,2.476,2.476s-1.11,2.476-2.476,2.476H26.047C24.682,20.119,23.571,19.008,23.571,17.643z M70.734,24.119v3.323
	h-7.767c-0.017,0-0.032,0.004-0.048,0.005H29.268v-3.328H70.734z M86.602,61.568H27.985v-6.865h58.617V61.568z M86.602,50.703
	H25.985c-1.104,0-2,0.896-2,2v10.865c0,1.104,0.896,2,2,2h60.617v6.617c0,6.972-5.672,12.644-12.643,12.644H62.968
	c-0.013,0-0.026,0.004-0.039,0.004H26.048c-6.975,0-12.649-5.675-12.649-12.649V40.789l8.446-9.342h41.123
	c0.017,0,0.032-0.004,0.048-0.005h9.67c0.016,0,0.032,0.005,0.048,0.005s0.032-0.004,0.048-0.005h5.372l8.447,9.342V50.703z"/></svg>