<?xml version="1.0"?>
<svg xmlns="http://www.w3.org/2000/svg" viewBox="0 0 64 64" width="512" height="512"><g id="Vitamin-Bottle-3" data-name="Vitamin-Bottle"><path d="M55.857,18.485,53,13.723V11h1a1,1,0,0,0,1-1V7a1,1,0,0,0-.1-.447l-2-4A1,1,0,0,0,52,2H12a1,1,0,0,0-.895.553l-2,4A1,1,0,0,0,9,7v3a1,1,0,0,0,1,1h1v2.723L8.143,18.485A1,1,0,0,0,8,19V59a3,3,0,0,0,3,3H53a3,3,0,0,0,3-3V19A1,1,0,0,0,55.857,18.485ZM11,7.236,12.618,4H51.382L53,7.236V9H11ZM51,11v2H13V11Zm3,48a1,1,0,0,1-1,1H11a1,1,0,0,1-1-1V19.277L12.566,15H51.434L54,19.277Z"/><path d="M48,25H16a2,2,0,0,0-2,2V49a2,2,0,0,0,2,2H48a2,2,0,0,0,2-2V27A2,2,0,0,0,48,25ZM16,49V27H48V49Z"/></g></svg>
