<svg id="_x31__px" enable-background="new 0 0 24 24" height="512" viewBox="0 0 24 24" width="512" xmlns="http://www.w3.org/2000/svg"><g id="XMLID_1_"><path d="m19.76 9 .06-1h.47c.28 0 .5.22.5.5s-.22.5-.5.5z"/><path d="m19.82 8-.06 1h-15.52l-.06-1z"/><path d="m20.2 4.78c.48.5.72 1.16.69 1.85l-.1 1.87c0-.28-.22-.5-.5-.5h-.47l.07-1.42c.02-.42-.12-.81-.41-1.11s-.67-.47-1.09-.47h.11c.28 0 .5-.22.5-.5v-.42c.46.11.87.35 1.2.7z"/><path d="m6.5 1c-.28 0-.5.22-.5.5v2.5h-.39c-.21 0-.41.03-.61.08v-2.58c0-.83.67-1.5 1.5-1.5h11c.83 0 1.5.67 1.5 1.5v2.58c-.2-.05-.4-.08-.61-.08h-.39v-2.5c0-.28-.22-.5-.5-.5z"/><path d="m5.61 4h.39 12 .39c.21 0 .41.03.61.08v.42c0 .28-.22.5-.5.5h-.11-12.78-.11c-.28 0-.5-.22-.5-.5v-.42c.2-.05.4-.08.61-.08z"/><path d="m4.9 21.58c.04.8.7 1.42 1.5 1.42h11.2c.8 0 1.46-.62 1.5-1.42l.66-12.58h.53c.28 0 .5-.22.5-.5l-.69 13.13c-.07 1.33-1.17 2.37-2.5 2.37h-11.2c-1.33 0-2.43-1.04-2.5-2.37l-.69-13.13c0 .28.22.5.5.5h.53z"/><path d="m4.18 8 .06 1h-.53c-.28 0-.5-.22-.5-.5s.22-.5.5-.5z"/><path d="m4.52 5.47c-.29.3-.43.69-.41 1.11l.07 1.42h-.47c-.28 0-.5.22-.5.5l-.1-1.87c-.04-.69.21-1.35.68-1.85.33-.35.75-.59 1.21-.7v.42c0 .28.22.5.5.5h.11c-.42 0-.8.17-1.09.47z"/></g></svg>