<?xml version="1.0" encoding="iso-8859-1"?>
<!-- Generator: Adobe Illustrator 19.0.0, SVG Export Plug-In . SVG Version: 6.00 Build 0)  -->
<svg version="1.1" id="Capa_1" xmlns="http://www.w3.org/2000/svg" xmlns:xlink="http://www.w3.org/1999/xlink" x="0px" y="0px"
	 viewBox="0 0 431.616 431.616" style="enable-background:new 0 0 431.616 431.616;" xml:space="preserve">
<g>
	<g>
		<path d="M355.328,126.72v-20.992c5.632-1.024,9.728-5.632,9.728-11.776V67.328c0-5.632-4.096-10.752-9.728-11.776V43.264
			c0-3.072-2.048-5.12-5.12-5.12h-44.032c-3.072,0-5.12,2.048-5.12,5.12v12.288c-5.632,1.024-9.728,5.632-9.728,11.776v26.624
			c0,5.632,4.096,10.752,9.728,11.776v20.992c-45.056,11.776-76.288,52.224-76.288,99.328V375.04
			c0,10.752,8.704,19.456,19.456,19.456H412.16c10.752,0,19.456-8.704,19.456-19.456V226.048
			C431.616,178.944,400.384,138.496,355.328,126.72z M311.296,48.384h33.792v7.168h-33.792V48.384z M301.568,66.816
			c0-1.024,0.512-1.536,1.536-1.536h50.688c1.024,0,1.536,0.512,1.536,1.536V93.44c0,1.024-0.512,1.536-1.536,1.536h-3.584h-44.032
			c0,0-3.072,0-3.072,0c-1.024,0-1.536-0.512-1.536-1.536V66.816z M307.2,135.424c2.56-0.512,4.096-2.56,4.096-5.12v-25.088h33.792
			v25.088c0,2.56,1.536,4.608,4.096,5.12c38.912,8.704,66.56,40.448,71.168,79.36h-184.32
			C240.64,176.384,268.288,144.64,307.2,135.424z M235.008,226.048c0-0.512,0-0.512,0-1.024h185.856c0,0.512,0,0.512,0,1.024
			v114.176H235.008V226.048z M421.376,375.04c0,5.12-4.096,9.216-9.216,9.216H244.224c-5.12,0-9.216-4.096-9.216-9.216v-24.576
			h186.368V375.04z"/>
	</g>
</g>
<g>
	<g>
		<path d="M196.608,134.4c-6.144-6.144-14.336-9.728-23.552-9.728h-30.72c-3.072,0-6.144-1.024-8.704-3.584
			c-2.048-2.048-3.584-5.12-3.584-8.704v-7.68h5.12c3.072,0,5.12-2.048,5.12-5.12V59.648c0-3.072-2.048-5.12-5.12-5.12h-5.12V42.24
			c0-3.072-2.048-5.12-5.12-5.12H80.896c-3.072,0-5.12,2.048-5.12,5.12v12.288h-4.608c-3.072,0-5.12,2.048-5.12,5.12v39.936
			c0,3.072,2.048,5.12,5.12,5.12h4.608v8.704c0,6.656-5.632,12.288-12.288,12.288h-30.72C14.848,125.696,0,140.544,0,158.464v59.392
			v104.448v41.984c0,16.896,13.312,30.208,30.208,30.208h145.92c16.896,0,30.208-13.824,30.208-30.208v-41.984V217.856v-59.904
			C206.336,149.248,202.752,141.056,196.608,134.4z M86.016,48.384h33.792v7.168H86.016V48.384z M76.288,65.28h53.76v29.696h-5.12
			H80.896h-4.608V65.28z M10.24,158.464c0-12.8,9.728-23.04,22.528-23.04H64c12.288,0,22.528-10.24,22.528-22.528v-7.68h33.28v8.192
			c0,6.144,2.56,11.776,6.656,15.872c4.096,4.096,9.728,6.656,15.872,6.656h30.72c6.144,0,11.776,2.048,15.872,6.656
			c4.096,4.096,6.656,9.728,6.656,15.872v54.784h-49.152c-12.8-9.728-28.16-14.848-44.032-14.848
			c-15.872,0-31.232,5.12-44.032,14.848H10.24V158.464z M195.584,364.288c0,10.752-8.704,19.968-19.968,19.968H30.208
			c-11.264,0-19.968-9.216-19.968-19.968v-36.864h46.08c13.312,10.752,29.696,16.896,46.592,16.896s33.792-6.144,46.592-16.896
			h46.08V364.288z M196.608,317.184H148.48c-1.024,0-2.56,0.512-3.584,1.024c-11.776,10.24-26.112,15.872-41.472,15.872
			s-30.208-5.632-41.472-15.872c-1.024-1.024-2.048-1.024-3.584-1.024H10.24v-94.208h50.688c1.024,0,2.048-0.512,3.072-1.024
			c11.264-9.216,25.088-13.824,39.424-13.824s28.16,4.608,39.424,13.824c1.024,0.512,2.048,1.024,3.072,1.024h50.688V317.184z"/>
	</g>
</g>
<g>
</g>
<g>
</g>
<g>
</g>
<g>
</g>
<g>
</g>
<g>
</g>
<g>
</g>
<g>
</g>
<g>
</g>
<g>
</g>
<g>
</g>
<g>
</g>
<g>
</g>
<g>
</g>
<g>
</g>
</svg>
