<?xml version="1.0" encoding="iso-8859-1"?>
<!-- Generator: Adobe Illustrator 19.0.0, SVG Export Plug-In . SVG Version: 6.00 Build 0)  -->
<svg version="1.1" id="Layer_1" xmlns="http://www.w3.org/2000/svg" xmlns:xlink="http://www.w3.org/1999/xlink" x="0px" y="0px"
	 viewBox="0 0 446.9 446.9" style="enable-background:new 0 0 446.9 446.9;" xml:space="preserve">
<g transform="translate(0 -540.36)">
	<g>
		<g>
			<path d="M317.15,609.36L317.15,609.36c-5.2-1.7-8.9-5.5-8.9-9.1v-12.4h9.3c4.1,0,7.5-3.4,7.5-7.5v-32.5c0-4.1-3.4-7.5-7.5-7.5
				h-188.4c-4.1,0-7.5,3.4-7.5,7.5v32.5c0,4.1,3.4,7.5,7.5,7.5h9.3v13.7c0,3.5-2.2,5.6-6.6,6.3c-0.3,0.1-0.6,0.1-0.9,0.2
				c-20.6,6.1-35,25.5-35,47.1v283.4c0,12.9,5.3,25.1,14.9,34.4c9.5,9.2,22,14.3,35.2,14.3h154.8c13.2,0,25.7-5.1,35.2-14.3
				c9.6-9.3,14.9-21.5,14.9-34.4v-283.4C350.85,634.16,337.05,615.36,317.15,609.36z M136.65,572.86v-17.5h173.4v17.5h-9.3h-154.8
				H136.65z M335.85,938.66c0,18.3-16.1,33.7-35.1,33.7h-154.8c-19,0-35.1-15.4-35.1-33.7v-283.4c0-14.6,10-28.3,23.9-32.6
				c11.4-2,18.7-10.3,18.7-21v-13.8h139.8v12.5c0,10.2,7.8,19.6,19.4,23.4c0.1,0,0.1,0,0.2,0.1c13.3,4,23,17.2,23,31.5V938.66z"/>
			<path d="M309.85,731.36c-4.1,0-7.5,3.4-7.5,7.5v133.6c0,4.1,3.4,7.5,7.5,7.5c4.1,0,7.5-3.3,7.5-7.5v-133.6
				C317.35,734.76,313.95,731.36,309.85,731.36z"/>
			<path d="M309.85,897.46c-4.1,0-7.5,3.4-7.5,7.5v8.7c0,4.1,3.4,7.5,7.5,7.5c4.1,0,7.5-3.3,7.5-7.5v-8.7
				C317.35,900.86,313.95,897.46,309.85,897.46z"/>
		</g>
	</g>
</g>
<g>
</g>
<g>
</g>
<g>
</g>
<g>
</g>
<g>
</g>
<g>
</g>
<g>
</g>
<g>
</g>
<g>
</g>
<g>
</g>
<g>
</g>
<g>
</g>
<g>
</g>
<g>
</g>
<g>
</g>
</svg>
