<?xml version="1.0" encoding="UTF-8" standalone="no"?>
<svg
   xmlns:dc="http://purl.org/dc/elements/1.1/"
   xmlns:cc="http://creativecommons.org/ns#"
   xmlns:rdf="http://www.w3.org/1999/02/22-rdf-syntax-ns#"
   xmlns:svg="http://www.w3.org/2000/svg"
   xmlns="http://www.w3.org/2000/svg"
   xmlns:sodipodi="http://sodipodi.sourceforge.net/DTD/sodipodi-0.dtd"
   xmlns:inkscape="http://www.inkscape.org/namespaces/inkscape"
   width="160mm"
   height="150mm"
   viewBox="0 0 160 150"
   version="1.1"
   id="svg8"
   inkscape:version="1.0.1 (3bc2e813f5, 2020-09-07)"
   sodipodi:docname="jar3.svg">
  <defs
     id="defs2" />
  <sodipodi:namedview
     id="base"
     pagecolor="#ffffff"
     bordercolor="#666666"
     borderopacity="1.0"
     inkscape:pageopacity="0.0"
     inkscape:pageshadow="2"
     inkscape:zoom="0.7"
     inkscape:cx="82.714018"
     inkscape:cy="182.03351"
     inkscape:document-units="mm"
     inkscape:current-layer="layer1"
     inkscape:document-rotation="0"
     showgrid="false"
     inkscape:window-width="1517"
     inkscape:window-height="1040"
     inkscape:window-x="52"
     inkscape:window-y="0"
     inkscape:window-maximized="0" />
  <metadata
     id="metadata5">
    <rdf:RDF>
      <cc:Work
         rdf:about="">
        <dc:format>image/svg+xml</dc:format>
        <dc:type
           rdf:resource="http://purl.org/dc/dcmitype/StillImage" />
        <dc:title></dc:title>
      </cc:Work>
    </rdf:RDF>
  </metadata>
  <g
     inkscape:label="Camada 1"
     inkscape:groupmode="layer"
     id="layer1">
    <path
       style="fill:#000000;stroke-width:0.264583"
       d="m 14.090423,139.41039 c -2.005584,-0.54598 -3.451244,-1.45276 -5.6578945,-3.54886 -2.1907,-2.08096 -3.5921003,-4.29408 -4.6079003,-7.27686 L 3.1037982,126.468 V 85.589876 44.711756 l 0.71615,-1.45521 c 0.39388,-0.80037 1.7082703,-2.70537 2.9208703,-4.23334 2.92994,-3.69194 3.8889305,-5.11925 4.4738705,-6.65867 0.68589,-1.80514 0.64449,-2.33716 -0.18189,-2.33716 -1.1367705,0 -2.4679905,-0.72014 -3.0274305,-1.63772 -0.48477,-0.79512 -0.53397,-1.32684 -0.53397,-5.77061 0,-4.44377 0.0492,-4.9755 0.53397,-5.77061 1.05257,-1.72642 -0.73217,-1.63773 32.9554735,-1.63773 30.5668,0 30.599,5.7e-4 31.58389,0.55411 1.74151,0.97878 1.86428,1.43014 1.86428,6.85423 0,4.00946 -0.0733,4.93729 -0.43919,5.55663 -0.57606,0.97519 -2.1694,1.8517 -3.36607,1.8517 h -0.95509 l 0.49827,1.31134 c 0.69737,1.83533 1.83382,3.60821 4.70793,7.34446 2.77004,3.60098 3.35308,4.71472 3.77917,7.2192 0.20719,1.21781 0.27041,13.30403 0.2166,41.407291 l -0.076,39.687503 -0.5883,1.71979 c -1.68226,4.91772 -5.45942,8.89769 -9.86274,10.39232 l -1.71979,0.58375 -25.53229,0.0559 c -21.92254,0.048 -25.73712,1.2e-4 -26.981089,-0.33852 z m 51.398159,-3.81974 c 0.98736,-0.14277 2.35658,-0.5447 3.04271,-0.89319 1.46369,-0.74341 4.25143,-3.55415 5.01838,-5.0598 1.46146,-2.86907 1.3885,-0.60143 1.3885,-43.156742 0,-27.499852 -0.0869,-39.634802 -0.29065,-40.584842 -0.23547,-1.09795 -0.86423,-2.11766 -3.31174,-5.37084 -3.13825,-4.1713 -4.98353,-7.44392 -5.28524,-9.37338 l -0.17583,-1.12448 h -25.1016 -25.1016 v 0.76588 c 0,1.28702 -0.99728,4.04244 -2.068963,5.71641 -0.55897,0.87313 -2.05505,2.88593 -3.32461,4.47289 -1.2695605,1.58697 -2.5101405,3.25384 -2.7568405,3.70417 -0.41501,0.75754 -0.4541,3.74747 -0.52273,39.977108 -0.0527,27.819936 0.011,39.671526 0.22005,40.930696 0.70953,4.27398 4.0703505,8.62829 7.6468435,9.90731 1.17744,0.42108 47.76023,0.5028 50.62332,0.0888 z m -5.87704,-5.18958 c -0.3016,-0.38343 -0.54837,-0.95737 -0.54837,-1.27542 0,-0.32426 0.99437,-1.84855 2.26367,-3.47005 2.43094,-3.10546 3.2215,-4.4412 3.98213,-6.72822 0.44435,-1.33607 0.49113,-2.82294 0.5714,-18.16062 0.0802,-15.327705 0.12456,-16.738868 0.53772,-17.111155 0.85849,-0.77357 1.76629,-0.80591 2.59587,-0.09247 l 0.76484,0.657762 0.0759,14.773556 c 0.0951,18.511467 -0.0587,20.231917 -2.18864,24.472447 -0.75786,1.50886 -4.69279,6.6633 -5.5396,7.25643 -0.8527,0.59726 -1.89689,0.46346 -2.51494,-0.32226 z M 70.440262,22.619046 v -3.43959 H 40.939212 11.438169 v 3.43959 3.43958 h 29.501043 29.50105 z"
       id="path2485" />
    <path
       style="fill:#000000;stroke-width:0.264583"
       d="m -106.23862,122.13963 c -1.74548,-0.40977 -4.09986,-1.84509 -5.45036,-3.32275 -1.53155,-1.67576 -2.39772,-3.75389 -2.57273,-6.17254 -0.13025,-1.80001 6.28753,-60.752142 6.84071,-62.837052 0.95378,-3.59478 4.1866,-6.66362 7.928443,-7.52626 0.63816,-0.14712 3.51177,-0.27041 6.38581,-0.27396 l 5.22552,-0.006 v -5.70057 c 0,-5.69967 10e-5,-5.70066 0.64943,-6.34999 0.59881,-0.59881 0.84631,-0.64943 3.175,-0.64943 h 2.52557 v -4.21979 -4.2198 l -15.67656,-0.0867 -15.676573,-0.0867 -2.31619,-0.71976 c -4.3711,-1.35833 -7.36945,-3.1128 -10.26064,-6.00399 -4.03346,-4.03347 -6.38392,-9.20488 -6.78834,-14.93555001 -0.15075,-2.13618999 -0.13061,-2.24663999 0.53023,-2.90746999 l 0.68693,-0.68694 h 62.201143 62.2011298 l 0.68722,0.68723 c 0.66584,0.66584 0.68192,0.75845 0.5165,2.97655999 C -6.0778172,7.833508 -11.650977,15.712198 -19.444057,18.914718 c -4.37019,1.79591 -3.77684,1.74366 -21.01061,1.85001 l -15.67656,0.0967 v 4.2198 4.21979 h 2.52556 c 2.32869,0 2.5762,0.0506 3.175,0.64943 0.64934,0.64933 0.64944,0.65032 0.64944,6.34999 v 5.70057 h 5.23607 c 5.70403,0 7.38744,0.26145 9.44415,1.46676 2.21582,1.29856 4.21342,3.90469 4.85955,6.33993 0.55318,2.08491 6.97096,61.037042 6.84071,62.837052 -0.33427,4.61963 -3.6428,8.46828 -8.17942,9.51474 -1.4659,0.33814 -73.214883,0.31945 -74.658453,-0.0195 z m 75.653503,-4.87207 c 1.68192,-1.03991 2.81695,-2.84047 2.96346,-4.70113 0.0603,-0.76572 -1.37567,-14.711902 -3.23387,-31.407502 -3.68609,-33.11887 -3.48488,-31.90172 -5.53174,-33.46294 -1.9707,-1.50312 -0.52108,-1.43883 -32.44396,-1.43883 -31.922883,0 -30.47327,-0.0643 -32.443963,1.43883 -2.0643,1.57452 -1.8641,0.37097 -5.51982,33.1842 -1.82117,16.34658 -3.31122,30.335982 -3.31122,31.087542 0,1.70936 1.01284,3.85276 2.27577,4.81605 1.9261,1.4691 -0.0477,1.40195 39.416913,1.34097 l 36.53332,-0.0564 z m -41.28882,-9.81055 c -11.77097,-1.73342 -20.44776,-10.382622 -22.11302,-22.042682 -0.82441,-5.7725 0.84091,-12.60433 4.32266,-17.73325 1.05546,-1.5548 4.74208,-5.24142 6.29689,-6.29689 7.71488,-5.23721 17.61499,-5.95438 25.78097,-1.86759 6.74115,3.37371 11.39922,9.17851 13.41195,16.71372 0.83117,3.11174 0.82912,8.60926 -0.004,11.93824 -0.72239,2.88488 -2.70133,7.09458 -4.37038,9.29686 -1.40141,1.84915 -4.06453,4.417162 -5.86632,5.656832 -1.96387,1.35117 -5.92241,3.10925 -8.34168,3.70473 -2.16792,0.53361 -7.34284,0.89124 -9.1166,0.63003 z m 8.46667,-4.74192 c 7.14002,-1.91393 13.14398,-7.953112 15.11749,-15.206162 0.65117,-2.39321 0.65117,-8.19013 0,-10.58333 -2.17211,-7.98295 -9.0781,-14.32919 -16.93358,-15.56105 l -1.49121,-0.23385 v 7.61504 c 0,7.4634 0.0109,7.61848 0.54656,7.7885 1.60671,0.50995 3.30127,2.87484 3.59488,5.01693 0.48289,3.52312 -2.63271,7.01609 -6.2581,7.01609 -3.40062,0 -6.35617,-3.03264 -6.34742,-6.51299 0.005,-2.01512 1.98422,-4.98048 3.6842,-5.52003 0.53567,-0.17002 0.54655,-0.3251 0.54655,-7.7885 v -7.61504 l -1.49121,0.23385 c -7.86892,1.23397 -14.75775,7.56443 -16.93357,15.56105 -0.65117,2.3932 -0.65117,8.19012 0,10.58333 2.22901,8.19207 9.09188,14.351032 17.49874,15.703912 1.50732,0.24256 6.88411,-0.0735 8.46667,-0.49775 z m -3.95673,-19.030592 c 0.40938,-0.40938 0.64943,-0.95173 0.64943,-1.46724 0,-0.5155 -0.24005,-1.05786 -0.64943,-1.46723 -1.31238,-1.31239 -3.5839,-0.38244 -3.5839,1.46723 0,1.08773 1.02894,2.11667 2.11667,2.11667 0.5155,0 1.05786,-0.24006 1.46723,-0.64943 z m -12.05057,-43.80057 v -2.11667 h 2.11667 2.11667 v 2.11667 2.11667 h 2.11666 2.11667 v -2.11667 -2.11667 h 2.11667 2.11666 v 2.11667 2.11667 h 2.11667 2.11667 v -2.11667 -2.11667 h 2.11666 2.11667 v 2.11667 2.11667 h 2.11667 2.11666 v -4.23334 -4.23333 h -14.81666 -14.81667 v 4.23333 4.23334 h 2.11667 2.11666 z m 19.05,-14.81666 v -4.23333 h -8.46666 -8.46667 v 4.23333 4.23334 h 8.46667 8.46666 z m 37.43854,-9.31979 c 3.06988,-1.04545 5.27247,-2.43328 7.67292,-4.83462 2.97043,-2.97154 4.68655,-6.13021 5.3682198,-9.88065 l 0.24808,-1.36493001 H -68.831227 -128.02566 l 0.24809,1.36493001 c 1.34017,7.37349 7.3825,13.53315 14.89321,15.18243 1.28241,0.28161 9.87578,0.33948 44.714593,0.30114 l 43.12708,-0.0475 z"
       id="path2487"
       sodipodi:nodetypes="cssssccssscccccsssscccsssscccssscsssssccsssssssssscscssssscssscccssscsssscsscsssscssssssccccccccccccccccccccccccccccccccccccccccccssscccssscs" />
    <path
       style="fill:#000000;stroke-width:0.264583"
       d="m 92.407087,139.93956 c -2.00558,-0.54599 -3.45124,-1.45276 -5.65789,-3.54887 -2.1907,-2.08095 -3.5921,-4.29407 -4.6079,-7.27686 l -0.72083,-2.11666 V 86.119047 76.990929 l 0.71615,-1.45521 c 0.393884,-0.800368 1.70827,-2.70537 2.92087,-4.23334 2.92994,-3.69194 3.88893,-5.11925 4.47387,-6.65867 0.68589,-1.80514 0.64449,-2.33716 -0.18189,-2.33716 -1.13677,0 -2.46799,-0.72014 -3.02743,-1.63772 -0.48477,-0.79512 -0.53397,-1.32684 -0.53397,-5.77061 0,-4.44377 0.0492,-4.9755 0.53397,-5.77061 1.05257,-1.72642 -0.73217,-1.63773 32.955483,-1.63773 30.5668,0 30.599,5.7e-4 31.58389,0.55411 1.74151,0.97878 1.86428,1.43014 1.86428,6.85423 0,4.00946 -0.0733,4.93729 -0.43919,5.55663 -0.57606,0.97519 -2.31932,2.431649 -3.36607,1.8517 h -0.95509 l 0.49827,1.31134 c 0.69737,1.83533 1.83382,3.60821 4.70793,7.34446 2.77004,3.60098 3.35308,4.71472 3.77917,7.21919 0.20719,1.217816 0.1989,18.902581 0.2166,9.6573 l -0.076,39.687491 -0.5883,1.7198 c -1.68226,4.91771 -5.45942,8.89768 -9.86274,10.39232 l -1.71979,0.58375 -25.53229,0.0559 c -21.922553,0.048 -25.737133,1.2e-4 -26.981103,-0.33853 z m 51.398173,-3.81974 c 0.98736,-0.14277 2.35658,-0.54471 3.04271,-0.89319 1.46369,-0.74341 4.25143,-3.55415 5.01838,-5.0598 1.46146,-2.86907 1.7591,-0.60304 1.3885,-43.156741 -0.0709,-8.140394 -0.0869,-7.8848 -0.29065,-8.83484 -0.23547,-1.09795 -0.86423,-2.11766 -3.31174,-5.37084 -3.13825,-4.1713 -4.98354,-7.443919 -5.28524,-9.37338 l -0.17583,-1.12448 h -25.1016 -25.101613 v 0.76588 c 0,1.28702 -0.99728,4.04244 -2.06896,5.71641 -0.55897,0.87313 -2.05505,2.88593 -3.32461,4.47289 -1.26956,1.58697 -2.51014,3.25384 -2.75684,3.70417 -0.41501,0.75753 -0.621143,26.648441 -0.52273,8.227106 0.148622,-27.819598 0.011,39.671515 0.22005,40.930685 0.70953,4.27398 4.07035,8.6283 7.64684,9.90732 1.17744,0.42108 47.760243,0.5028 50.623333,0.0888 z m -5.87704,-5.18958 c -0.3016,-0.38343 -0.54837,-0.95737 -0.54837,-1.27542 0,-0.32426 0.99437,-1.84855 2.26367,-3.47005 2.43094,-3.10546 3.2215,-4.44119 3.98213,-6.72822 0.44435,-1.33606 0.49113,-2.82293 0.5714,-18.16062 0.0802,-15.327704 0.12456,-16.738867 0.53772,-17.111154 0.85849,-0.77357 1.76629,-0.80591 2.59587,-0.09247 l 0.76484,0.657762 0.0759,14.773555 c 0.0951,18.511477 -0.0587,20.231927 -2.18864,24.472447 -0.75786,1.50886 -4.69279,6.6633 -5.5396,7.25643 -0.8527,0.59726 -1.89689,0.46346 -2.51494,-0.32226 z m 10.82872,-76.032021 v -3.43959 H 119.25589 89.754837 v 3.43959 3.43958 h 29.501053 29.50105 z"
       id="path2485-6"
       sodipodi:nodetypes="ssscccsssssssssscscsssscsscsssssssssscccssssscsssssssssscsssssccccccccc" />
  </g>
</svg>
