<?xml version="1.0" encoding="iso-8859-1"?>
<!-- Generator: Adobe Illustrator 19.0.0, SVG Export Plug-In . SVG Version: 6.00 Build 0)  -->
<svg version="1.1" id="Capa_1" xmlns="http://www.w3.org/2000/svg" xmlns:xlink="http://www.w3.org/1999/xlink" x="0px" y="0px"
	 viewBox="0 0 511.999 511.999" style="enable-background:new 0 0 511.999 511.999;" xml:space="preserve">
<g>
	<g>
		<path d="M130.647,332.508c-1.4-1.39-3.33-2.19-5.31-2.19c-1.97,0-3.9,0.8-5.3,2.19c-1.4,1.4-2.2,3.33-2.2,5.31
			c0,1.97,0.8,3.9,2.2,5.3s3.33,2.2,5.3,2.2c1.98,0,3.91-0.8,5.31-2.2c1.39-1.4,2.19-3.33,2.19-5.3
			C132.837,335.838,132.037,333.908,130.647,332.508z"/>
	</g>
</g>
<g>
	<g>
		<path d="M160.886,346.087c-1.4-1.39-3.33-2.2-5.31-2.2c-1.97,0-3.9,0.81-5.3,2.2c-1.39,1.4-2.19,3.33-2.19,5.31
			c0,1.97,0.8,3.9,2.19,5.3c1.4,1.39,3.33,2.2,5.3,2.2c1.98,0,3.91-0.81,5.31-2.2c1.39-1.4,2.19-3.33,2.19-5.3
			C163.076,349.417,162.276,347.487,160.886,346.087z"/>
	</g>
</g>
<g>
	<g>
		<path d="M102.827,346.087c-1.4-1.4-3.33-2.2-5.3-2.2c-1.98,0-3.91,0.8-5.31,2.2c-1.39,1.4-2.19,3.33-2.19,5.3
			c0,1.98,0.8,3.91,2.19,5.31c1.4,1.39,3.33,2.2,5.31,2.2c1.97,0,3.9-0.81,5.3-2.2c1.4-1.4,2.2-3.33,2.2-5.31
			C105.027,349.417,104.227,347.487,102.827,346.087z"/>
	</g>
</g>
<g>
	<g>
		<path d="M391.459,367.017H215.385l-49.752-47.756c-10.312-10.477-24.073-16.245-38.766-16.245
			c-14.732,0-28.528,5.799-38.849,16.33l-46.713,47.671H10.825c-4.076,0-7.618,1.905-9.474,5.095
			c-1.865,3.206-1.765,7.256,0.269,10.835l15.02,26.427v38.903c0,18.065,14.519,32.761,32.365,32.761h159.14
			c17.848,0,32.367-14.697,32.367-32.761v-37.062h89.979c5.228,15.898,19.888,26.877,36.96,26.877
			c18.193,0,38.465-13.839,38.465-33.69c0.001-0.627,0.117-22.657,0.117-22.696C406.033,373.607,399.495,367.017,391.459,367.017z
			 M225.512,448.277c0,9.794-7.791,17.762-17.368,17.762H49.004c-9.576,0-17.366-7.968-17.366-17.762v-40.885
			c0-1.299-0.337-2.576-0.979-3.706l-12.316-21.67h128.662c4.142,0,7.5-3.358,7.5-7.5c0-4.142-3.358-7.5-7.5-7.5H62.304
			l36.425-37.172c7.477-7.628,17.469-11.829,28.136-11.829s20.661,4.201,28.136,11.829l38.723,37.172h-15.72
			c-4.142,0-7.5,3.358-7.5,7.5c0,4.142,3.358,7.5,7.5,7.5h47.506V448.277z M390.916,404.396c0,10.53-12.614,18.697-23.466,18.697
			c-11.833,0-21.788-8.642-23.672-20.549c-0.577-3.645-3.719-6.328-7.408-6.328h-95.859v-14.2h150.52
			C391.017,384.856,390.916,403.995,390.916,404.396z"/>
	</g>
</g>
<g>
	<g>
		<path d="M498.107,265.519H347.929c-2.278-5.291-5.132-10.331-8.529-14.96c-2.451-3.34-7.146-4.061-10.484-1.61
			c-3.338,2.451-4.06,7.144-1.609,10.484c1.426,1.943,2.722,3.982,3.907,6.086h-22.438c0.309-0.226,0.606-0.468,0.878-0.74
			c1.391-1.39,2.2-3.32,2.2-5.3c0-1.97-0.81-3.9-2.2-5.3c-1.399-1.4-3.33-2.2-5.3-2.2c-1.979,0-3.91,0.8-5.31,2.2
			c-1.391,1.39-2.2,3.33-2.2,5.3c0,1.98,0.81,3.91,2.2,5.3c0.273,0.272,0.569,0.514,0.878,0.74h-40.936
			c0.309-0.226,0.605-0.468,0.878-0.74c1.4-1.39,2.2-3.33,2.2-5.3c0-1.97-0.8-3.91-2.2-5.3c-1.399-1.4-3.33-2.2-5.299-2.2
			c-1.98,0-3.91,0.8-5.31,2.2c-1.39,1.39-2.19,3.33-2.19,5.3c0,1.98,0.8,3.91,2.19,5.3c0.272,0.272,0.569,0.514,0.878,0.74h-23.109
			c10.475-18.537,30.105-30.688,52.108-30.688c8.966,0,17.586,1.959,25.62,5.822c3.729,1.792,8.214,0.224,10.009-3.509
			c1.795-3.733,0.225-8.214-3.509-10.009c-10.08-4.846-20.887-7.304-32.12-7.304c-30.364,0-57.103,18.449-68.816,45.688h-6.102
			c-4.662,0-9.023,2.311-11.666,6.178c-2.611,3.82-3.215,8.698-1.615,13.052c13.669,37.15,49.113,62.111,88.198,62.111
			c30.679,0,59.109-15.382,76.529-39.959h86.834c4.957,14.393,18.349,24.286,33.919,24.286c16.781,0,35.478-12.801,35.478-31.164
			c0.001-0.587,0.106-20.47,0.106-20.51C511.999,271.797,505.768,265.519,498.107,265.519z M279.133,331.86
			c-32.494,0-62.01-20.591-73.766-51.341h147.528C341.143,311.271,311.628,331.86,279.133,331.86z M496.894,300.016
			c0,7.478-8.945,16.171-20.479,16.171c-10.337,0-19.033-7.552-20.678-17.957c-0.576-3.645-3.718-6.329-7.408-6.329h-83.974
			c1.078-2.329,2.074-4.71,2.971-7.147c0.508-1.376,0.77-2.804,0.842-4.236h128.825
			C496.973,284.655,496.894,299.678,496.894,300.016z"/>
	</g>
</g>
<g>
	<g>
		<path d="M286.514,242.999c-1.39-1.4-3.32-2.2-5.3-2.2c-1.97,0-3.91,0.8-5.3,2.2c-1.4,1.39-2.2,3.32-2.2,5.3
			c0,1.97,0.8,3.91,2.2,5.3c1.39,1.4,3.33,2.2,5.3,2.2c1.979,0,3.91-0.8,5.3-2.2c1.4-1.4,2.2-3.33,2.2-5.3
			S287.914,244.389,286.514,242.999z"/>
	</g>
</g>
<g>
	<g>
		<path d="M193.366,102.372c-1.4-1.4-3.33-2.2-5.31-2.2c-1.97,0-3.91,0.8-5.3,2.2c-1.4,1.4-2.2,3.33-2.2,5.31
			c0,1.97,0.8,3.9,2.2,5.3c1.4,1.39,3.33,2.2,5.3,2.2c1.98,0,3.91-0.81,5.31-2.2c1.39-1.4,2.19-3.33,2.19-5.3
			C195.556,105.702,194.756,103.772,193.366,102.372z"/>
	</g>
</g>
<g>
	<g>
		<path d="M157.116,81.753c-1.39-1.39-3.33-2.19-5.3-2.19c-1.97,0-3.91,0.8-5.3,2.19c-1.4,1.4-2.2,3.33-2.2,5.31
			c0,1.97,0.8,3.9,2.2,5.3c1.39,1.4,3.33,2.2,5.3,2.2c1.97,0,3.91-0.8,5.3-2.2c1.4-1.4,2.2-3.33,2.2-5.3
			C159.316,85.083,158.516,83.153,157.116,81.753z"/>
	</g>
</g>
<g>
	<g>
		<path d="M120.877,100.902c-1.39-1.4-3.33-2.2-5.3-2.2c-1.98,0-3.91,0.8-5.31,2.2c-1.39,1.39-2.19,3.33-2.19,5.3
			c0,1.98,0.8,3.91,2.19,5.3c1.4,1.4,3.33,2.2,5.31,2.2c1.97,0,3.91-0.8,5.3-2.2c1.4-1.39,2.2-3.32,2.2-5.3
			C123.077,104.232,122.277,102.292,120.877,100.902z"/>
	</g>
</g>
<g>
	<g>
		<path d="M433.199,87.931h-74.732c-5.616,0-10.378,3.725-11.948,8.833h-51.84V61.262c0-6.893-5.607-12.5-12.5-12.5h-58.932
			c-3.84,0-7.278,1.744-9.573,4.478c-4.036-1.643-8.438-2.552-13.049-2.552c-2.835,0-5.658,0.35-8.396,1.031
			c-5.595-12.415-17.921-20.759-31.937-20.759c-14.19,0-26.688,8.685-32.166,21.323c-3.347-1.053-6.85-1.595-10.409-1.595
			c-16.932,0-31.105,12.191-34.409,28.357c-1.462-0.189-2.94-0.283-4.431-0.283c-16.347,0-30.121,11.362-34.027,26.695
			c-2.55-0.593-5.166-0.897-7.799-0.897c-19.375,0-35.137,15.959-35.137,35.574c0,9.163,3.566,18.036,9.841,24.643
			c-3.909,5.186-7.361,10.775-10.249,16.738c-2.234,4.609-1.97,9.967,0.704,14.331c2.706,4.418,7.397,7.055,12.549,7.055h267.42
			c6.893,0,12.5-5.608,12.5-12.5v-34.397h51.84c1.57,5.108,6.332,8.832,11.948,8.832h74.732c16.127,0,29.246-13.274,29.246-29.59
			v-17.725C462.445,101.205,449.326,87.931,433.199,87.931z M210.747,187.903H15.079c14.347-29.463,44.47-48.495,76.792-48.495
			h118.877V187.903z M210.747,124.408H91.871c-2.95,0-5.881,0.15-8.792,0.414c-0.35-0.672-0.799-1.293-1.34-1.831
			c-1.4-1.4-3.33-2.2-5.3-2.2c-1.98,0-3.91,0.8-5.31,2.2c-1.115,1.115-1.842,2.586-2.089,4.141
			c-17.716,4.249-34.033,13.321-47.094,26.06h-0.428c-2.987-3.673-4.604-8.218-4.604-13.058c0-11.345,9.034-20.575,20.138-20.575
			c3.625,0,7.203,1.023,10.348,2.96c2.385,1.468,5.388,1.486,7.789,0.046c2.401-1.44,3.801-4.097,3.629-6.891l-0.029-0.45
			c-0.019-0.294-0.045-0.588-0.045-0.887c0-11.346,9.033-20.577,20.136-20.577c2.828,0,5.587,0.607,8.204,1.806
			c2.426,1.11,5.259,0.85,7.44-0.686c2.182-1.536,3.383-4.115,3.155-6.773c-0.066-0.769-0.095-1.338-0.095-1.847
			c0-11.345,9.033-20.575,20.136-20.575c3.928,0,7.741,1.166,11.027,3.371c2.156,1.447,4.908,1.675,7.273,0.606
			c2.366-1.071,4.009-3.29,4.344-5.865c1.323-10.17,9.891-17.839,19.931-17.839c9.743,0,18.068,7.111,19.794,16.908
			c0.42,2.384,1.964,4.418,4.147,5.463c2.183,1.045,4.736,0.973,6.856-0.195c2.951-1.625,6.16-2.449,9.537-2.449
			c3.69,0,7.146,1.027,10.122,2.806V124.408z M279.679,187.903h-53.932V63.762h53.932V187.903z M345.967,141.004h-51.288v-29.241
			h51.288V141.004z M393.805,149.837h-32.838v-46.906h32.838V149.837z M447.446,135.247c0,8.045-6.392,14.591-14.247,14.591h-24.395
			v-46.906h24.395c7.855,0,14.247,6.545,14.247,14.591V135.247z"/>
	</g>
</g>
<g>
</g>
<g>
</g>
<g>
</g>
<g>
</g>
<g>
</g>
<g>
</g>
<g>
</g>
<g>
</g>
<g>
</g>
<g>
</g>
<g>
</g>
<g>
</g>
<g>
</g>
<g>
</g>
<g>
</g>
</svg>
